<?xml version="1.0" encoding="UTF-8"?>
<svg width="305px" height="75px" viewBox="0 0 305 75" version="1.1" xmlns="http://www.w3.org/2000/svg" xmlns:xlink="http://www.w3.org/1999/xlink">
    <title>Group 2</title>
    <g id="Page-1" stroke="none" stroke-width="1" fill="none" fill-rule="evenodd">
        <g id="Paper" transform="translate(-98.000000, -231.000000)">
            <g id="Group-2" transform="translate(99.000000, 232.000000)">
                <g id="Group" fill-rule="nonzero" stroke="#000000">
                    <path d="M6.9,35.7 L8.6,28.2 L20.5,28.2 L22.2,35.7 L29.1,35.7 L20.75,0.7 L8.35,0.7 L2.84217094e-14,35.7 L6.9,35.7 Z M19.05,21.9 L10,21.9 L14.1,4 L15,4 L19.05,21.9 Z M44.85,35.7 C49.1833333,35.7 52.4,34.6916667 54.5,32.675 C56.6,30.6583333 57.65,27.5333333 57.65,23.3 L57.65,23.3 L57.65,13.1 C57.65,8.86666667 56.6,5.74166667 54.5,3.725 C52.4,1.70833333 49.1833333,0.7 44.85,0.7 L44.85,0.7 L32.15,0.7 L32.15,7 L35.45,7 L35.45,29.35 L32.15,29.35 L32.15,35.7 L44.85,35.7 Z M44.85,29.4 L42.05,29.4 L42.05,7 L44.85,7 C47.15,7 48.7583333,7.51666667 49.675,8.55 C50.5916667,9.58333333 51.05,11.1 51.05,13.1 L51.05,13.1 L51.05,22.7 C51.05,25 50.5916667,26.6916667 49.675,27.775 C48.7583333,28.8583333 47.15,29.4 44.85,29.4 L44.85,29.4 Z M140.25,35.7 L140.25,7 L149.55,7 L149.55,0.7 L124.35,0.7 L124.35,7 L133.65,7 L133.65,35.7 L140.25,35.7 Z M179.25,35.7 L179.25,29.4 L170.85,29.4 L170.85,7 L179.25,7 L179.25,0.7 L155.85,0.7 L155.85,7 L164.25,7 L164.25,29.4 L155.85,29.4 L155.85,35.7 L179.25,35.7 Z M198.65,36.4 C200.616667,36.4 202.383333,36.15 203.95,35.65 C205.516667,35.15 206.85,34.4333333 207.95,33.5 C209.05,32.5666667 209.891667,31.4416667 210.475,30.125 C211.058333,28.8083333 211.35,27.3333333 211.35,25.7 L211.35,25.7 L211.35,25.1 C211.35,22.0333333 210.383333,19.7166667 208.45,18.15 C206.516667,16.5833333 203.716667,15.4666667 200.05,14.8 C198.583333,14.5333333 197.375,14.25 196.425,13.95 C195.475,13.65 194.708333,13.3083333 194.125,12.925 C193.541667,12.5416667 193.133333,12.1083333 192.9,11.625 C192.666667,11.1416667 192.55,10.6 192.55,10 C192.55,8.83333333 193.033333,7.90833333 194,7.225 C194.966667,6.54166667 196.283333,6.2 197.95,6.2 C199.916667,6.2 201.441667,6.71666667 202.525,7.75 C203.608333,8.78333333 204.15,10 204.15,11.4 L204.15,11.4 L204.15,12.6 L210.75,12.6 L210.75,10.8 C210.75,9.36666667 210.475,8 209.925,6.7 C209.375,5.4 208.558333,4.25 207.475,3.25 C206.391667,2.25 205.05,1.45833333 203.45,0.875 C201.85,0.291666667 200.016667,0 197.95,0 C196.116667,0 194.458333,0.25 192.975,0.75 C191.491667,1.25 190.225,1.95 189.175,2.85 C188.125,3.75 187.308333,4.80833333 186.725,6.025 C186.141667,7.24166667 185.85,8.56666667 185.85,10 L185.85,10 L185.85,10.3 C185.85,12.0333333 186.15,13.5 186.75,14.7 C187.35,15.9 188.191667,16.9 189.275,17.7 C190.358333,18.5 191.633333,19.1416667 193.1,19.625 C194.566667,20.1083333 196.183333,20.5 197.95,20.8 C199.283333,21.0333333 200.383333,21.3166667 201.25,21.65 C202.116667,21.9833333 202.8,22.3583333 203.3,22.775 C203.8,23.1916667 204.15,23.6583333 204.35,24.175 C204.55,24.6916667 204.65,25.2333333 204.65,25.8 C204.65,27 204.166667,28.0333333 203.2,28.9 C202.233333,29.7666667 200.75,30.2 198.75,30.2 C196.183333,30.2 194.291667,29.575 193.075,28.325 C191.858333,27.075 191.25,25.4 191.25,23.3 L191.25,23.3 L191.25,22.1 L184.65,22.1 L184.65,23.6 C184.65,25.4333333 184.95,27.125 185.55,28.675 C186.15,30.225 187.033333,31.575 188.2,32.725 C189.366667,33.875 190.825,34.775 192.575,35.425 C194.325,36.075 196.35,36.4 198.65,36.4 Z M240.45,35.7 L240.45,29.4 L232.05,29.4 L232.05,7 L240.45,7 L240.45,0.7 L217.05,0.7 L217.05,7 L225.45,7 L225.45,29.4 L217.05,29.4 L217.05,35.7 L240.45,35.7 Z M253.7,35.7 L253.7,4 L254.6,4 L258.7,35.7 L271.6,35.7 L271.6,0.7 L265,0.7 L265,32.4 L264.1,32.4 L260,0.7 L247.1,0.7 L247.1,35.7 L253.7,35.7 Z M288.35,36.4 C290.616667,36.4 292.316667,35.9583333 293.45,35.075 C294.583333,34.1916667 295.35,33.1 295.75,31.8 L295.75,31.8 L296.65,31.8 L296.65,35.7 L302.65,35.7 L302.65,18 L287.65,18 L287.65,24.3 L296.05,24.3 C296.05,26.0666667 295.541667,27.475 294.525,28.525 C293.508333,29.575 292.016667,30.1 290.05,30.1 C285.65,30.1 283.45,27.4 283.45,22 L283.45,22 L283.45,14.6 C283.45,11.5666667 284.05,9.425 285.25,8.175 C286.45,6.925 287.983333,6.3 289.85,6.3 C291.816667,6.3 293.341667,6.84166667 294.425,7.925 C295.508333,9.00833333 296.05,10.6 296.05,12.7 L296.05,12.7 L296.05,13.3 L302.65,13.3 L302.65,12.7 C302.65,10.9333333 302.366667,9.275 301.8,7.725 C301.233333,6.175 300.4,4.825 299.3,3.675 C298.2,2.525 296.866667,1.625 295.3,0.975 C293.733333,0.325 291.95,0 289.95,0 C288.016667,0 286.25,0.308333333 284.65,0.925 C283.05,1.54166667 281.675,2.45 280.525,3.65 C279.375,4.85 278.475,6.325 277.825,8.075 C277.175,9.825 276.85,11.8333333 276.85,14.1 L276.85,14.1 L276.85,22.3 C276.85,24.6333333 277.15,26.675 277.75,28.425 C278.35,30.175 279.166667,31.6416667 280.2,32.825 C281.233333,34.0083333 282.45,34.9 283.85,35.5 C285.25,36.1 286.75,36.4 288.35,36.4 Z" id="ADVRTISING"></path>
                </g>
                <text id="VR" font-family="SpaceMono-BoldItalic, Space Mono" font-size="50" font-style="italic" font-weight="bold" fill="#000000">
                    <tspan x="62.4" y="56">VR</tspan>
                </text>
            </g>
        </g>
    </g>
</svg>